ffmpeg started on 2019-09-30 at 16:10:34
Report written to "ffmpeg-20190930-161034.log"
Command line:
ffmpeg -y -loglevel warning -report -stats -i "concat:D:\\VIDEO_TS\\VTS_01_0.VOB|D:\\VIDEO_TS\\VTS_01_1.VOB" -c copy -target ntsc-dvd "C:\\temp\\donn.mpg"
ffmpeg version N-93298-g0ce759defd Copyright (c) 2000-2019 the FFmpeg developers
  built with gcc 8.2.1 (GCC) 20190212
  configuration: --enable-gpl --enable-version3 --enable-sdl2 --enable-fontconfig --enable-gnutls --enable-iconv --enable-libass --enable-libdav1d --enable-libbluray --enable-libfreetype --enable-libmp3lame --enable-libopencore-amrnb --enable-libopencore-amrwb --enable-libopenjpeg --enable-libopus --enable-libshine --enable-libsnappy --enable-libsoxr --enable-libtheora --enable-libtwolame --enable-libvpx --enable-libwavpack --enable-libwebp --enable-libx264 --enable-libx265 --enable-libxml2 --enable-libzimg --enable-lzma --enable-zlib --enable-gmp --enable-libvidstab --enable-libvorbis --enable-libvo-amrwbenc --enable-libmysofa --enable-libspeex --enable-libxvid --enable-libaom --enable-libmfx --enable-amf --enable-ffnvcodec --enable-cuvid --enable-d3d11va --enable-nvenc --enable-nvdec --enable-dxva2 --enable-avisynth --enable-libopenmpt
  libavutil      56. 26.100 / 56. 26.100
  libavcodec     58. 47.103 / 58. 47.103
  libavformat    58. 26.101 / 58. 26.101
  libavdevice    58.  6.101 / 58.  6.101
  libavfilter     7. 48.100 /  7. 48.100
  libswscale      5.  4.100 /  5.  4.100
  libswresample   3.  4.100 /  3.  4.100
  libpostproc    55.  4.100 / 55.  4.100
Splitting the commandline.
Reading option '-y' ... matched as option 'y' (overwrite output files) with argument '1'.
Reading option '-loglevel' ... matched as option 'loglevel' (set logging level) with argument 'warning'.
Reading option '-report' ... matched as option 'report' (generate a report) with argument '1'.
Reading option '-stats' ... matched as option 'stats' (print progress report during encoding) with argument '1'.
Reading option '-i' ... matched as input url with argument 'concat:D:\VIDEO_TS\VTS_01_0.VOB|D:\VIDEO_TS\VTS_01_1.VOB'.
Reading option '-c' ... matched as option 'c' (codec name) with argument 'copy'.
Reading option '-target' ... matched as option 'target' (specify target file type ("vcd", "svcd", "dvd", "dv" or "dv50" with optional prefixes "pal-", "ntsc-" or "film-")) with argument 'ntsc-dvd'.
Reading option 'C:\temp\donn.mpg' ... matched as output url.
Finished splitting the commandline.
Parsing a group of options: global .
Applying option y (overwrite output files) with argument 1.
Applying option loglevel (set logging level) with argument warning.
Applying option report (generate a report) with argument 1.
Applying option stats (print progress report during encoding) with argument 1.
Successfully parsed a group of options.
Parsing a group of options: input url concat:D:\VIDEO_TS\VTS_01_0.VOB|D:\VIDEO_TS\VTS_01_1.VOB.
Successfully parsed a group of options.
Opening an input file: concat:D:\VIDEO_TS\VTS_01_0.VOB|D:\VIDEO_TS\VTS_01_1.VOB.
[NULL @ 000001cb5ec8a380] Opening 'concat:D:\VIDEO_TS\VTS_01_0.VOB|D:\VIDEO_TS\VTS_01_1.VOB' for reading
[concat @ 000001cb5ec8b500] Setting default whitelist 'concat,file,subfile'
[mpeg @ 000001cb5ec8a380] Format mpeg probed with size=2048 and score=26
[mpeg @ 000001cb5ec8a380] Before avformat_find_stream_info() pos: 0 bytes read:32768 seeks:0 nb_streams:0
[mpeg @ 000001cb5ec8a380] probing stream 1 pp:2500
[mpeg @ 000001cb5ec8a380] Probe with size=2012, packets=1 detected mpegvideo with score=25
[mpeg @ 000001cb5ec8a380] probed stream 1
[mpeg2video @ 000001cb5ec8bc80] Format yuv420p chosen by get_format().
[mpeg @ 000001cb5ec8a380] Non-increasing DTS in stream 1: packet 13 with DTS 57057, packet 14 with DTS 24024
[mpeg @ 000001cb5ec8a380] max_analyze_duration 5000000 reached at 5005000 microseconds st:1
[mpeg @ 000001cb5ec8a380] After avformat_find_stream_info() pos: 0 bytes read:3756176 seeks:2 frames:303
Input #0, mpeg, from 'concat:D:\VIDEO_TS\VTS_01_0.VOB|D:\VIDEO_TS\VTS_01_1.VOB':
  Duration: 00:01:04.96, start: 0.233567, bitrate: 6171 kb/s
    Stream #0:0[0x1bf], 11, 1/90000: Data: dvd_nav_packet
    Stream #0:1[0x1e0], 152, 1/90000: Video: mpeg2video (Main), yuv420p(tv, top first), 720x480 [SAR 8:9 DAR 4:3], 2000 kb/s, 29.97 fps, 29.97 tbr, 90k tbn, 59.94 tbc
    Stream #0:2[0x20], 1, 1/90000: Subtitle: dvd_subtitle
    Stream #0:3[0x80], 139, 1/90000: Audio: ac3, 48000 Hz, stereo, fltp, 192 kb/s
Successfully opened the file.
Parsing a group of options: output url C:\temp\donn.mpg.
Applying option c (codec name) with argument copy.
Applying option target (specify target file type ("vcd", "svcd", "dvd", "dv" or "dv50" with optional prefixes "pal-", "ntsc-" or "film-")) with argument ntsc-dvd.
Successfully parsed a group of options.
Opening an output file: C:\temp\donn.mpg.
[file @ 000001cb5ec8f740] Setting default whitelist 'file,crypto'
Successfully opened the file.
detected 8 logical cores
Stream mapping:
  Stream #0:1 -> #0:0 (mpeg2video (native) -> mpeg2video (native))
  Stream #0:3 -> #0:1 (ac3 (native) -> ac3 (native))
Press [q] to stop, [?] for help
cur_dts is invalid (this is harmless if it occurs once at the start per stream)
[mpeg @ 000001cb5ec8a380] Correcting start time by 66733
[mpeg2video @ 000001cb5ec9d640] Format yuv420p chosen by get_format().
cur_dts is invalid (this is harmless if it occurs once at the start per stream)
[mpeg2video @ 000001cb5ec9d640] allocating dummy last picture for B frame
[graph 0 input from stream 0:1 @ 000001cb5ed512c0] Setting 'video_size' to value '720x480'
[graph 0 input from stream 0:1 @ 000001cb5ed512c0] Setting 'pix_fmt' to value '0'
[graph 0 input from stream 0:1 @ 000001cb5ed512c0] Setting 'time_base' to value '1/90000'
[graph 0 input from stream 0:1 @ 000001cb5ed512c0] Setting 'pixel_aspect' to value '8/9'
[graph 0 input from stream 0:1 @ 000001cb5ed512c0] Setting 'sws_param' to value 'flags=2'
[graph 0 input from stream 0:1 @ 000001cb5ed512c0] Setting 'frame_rate' to value '30000/1001'
[graph 0 input from stream 0:1 @ 000001cb5ed512c0] w:720 h:480 pixfmt:yuv420p tb:1/90000 fr:30000/1001 sar:8/9 sws_param:flags=2
[scaler_out_0_0 @ 000001cb5ec92c40] Setting 'w' to value '720'
[scaler_out_0_0 @ 000001cb5ec92c40] Setting 'h' to value '480'
[scaler_out_0_0 @ 000001cb5ec92c40] Setting 'flags' to value 'bicubic'
[scaler_out_0_0 @ 000001cb5ec92c40] w:720 h:480 flags:'bicubic' interl:0
[format @ 000001cb5ecd5bc0] Setting 'pix_fmts' to value 'yuv420p'
[AVFilterGraph @ 000001cb5ecd6a00] query_formats: 5 queried, 4 merged, 0 already done, 0 delayed
[scaler_out_0_0 @ 000001cb5ec92c40] w:720 h:480 fmt:yuv420p sar:8/9 -> w:720 h:480 fmt:yuv420p sar:8/9 flags:0x4
[mpeg2video @ 000001cb5ed28140] intra_quant_bias = 96 inter_quant_bias = 0
cur_dts is invalid (this is harmless if it occurs once at the start per stream)
cur_dts is invalid (this is harmless if it occurs once at the start per stream)
cur_dts is invalid (this is harmless if it occurs once at the start per stream)
cur_dts is invalid (this is harmless if it occurs once at the start per stream)
cur_dts is invalid (this is harmless if it occurs once at the start per stream)
cur_dts is invalid (this is harmless if it occurs once at the start per stream)
cur_dts is invalid (this is harmless if it occurs once at the start per stream)
cur_dts is invalid (this is harmless if it occurs once at the start per stream)
cur_dts is invalid (this is harmless if it occurs once at the start per stream)
cur_dts is invalid (this is harmless if it occurs once at the start per stream)
cur_dts is invalid (this is harmless if it occurs once at the start per stream)
cur_dts is invalid (this is harmless if it occurs once at the start per stream)
cur_dts is invalid (this is harmless if it occurs once at the start per stream)
cur_dts is invalid (this is harmless if it occurs once at the start per stream)
cur_dts is invalid (this is harmless if it occurs once at the start per stream)
cur_dts is invalid (this is harmless if it occurs once at the start per stream)
cur_dts is invalid (this is harmless if it occurs once at the start per stream)
cur_dts is invalid (this is harmless if it occurs once at the start per stream)
cur_dts is invalid (this is harmless if it occurs once at the start per stream)
cur_dts is invalid (this is harmless if it occurs once at the start per stream)
cur_dts is invalid (this is harmless if it occurs once at the start per stream)
cur_dts is invalid (this is harmless if it occurs once at the start per stream)
cur_dts is invalid (this is harmless if it occurs once at the start per stream)
cur_dts is invalid (this is harmless if it occurs once at the start per stream)
cur_dts is invalid (this is harmless if it occurs once at the start per stream)
cur_dts is invalid (this is harmless if it occurs once at the start per stream)
timestamp discontinuity for stream #0:1 (id=480, type=video): -400401, new offset= 100101
cur_dts is invalid (this is harmless if it occurs once at the start per stream)
cur_dts is invalid (this is harmless if it occurs once at the start per stream)
cur_dts is invalid (this is harmless if it occurs once at the start per stream)
cur_dts is invalid (this is harmless if it occurs once at the start per stream)
[graph_1_in_0_3 @ 000001cb5f1629c0] Setting 'time_base' to value '1/48000'
[graph_1_in_0_3 @ 000001cb5f1629c0] Setting 'sample_rate' to value '48000'
[graph_1_in_0_3 @ 000001cb5f1629c0] Setting 'sample_fmt' to value 'fltp'
[graph_1_in_0_3 @ 000001cb5f1629c0] Setting 'channel_layout' to value '0x3'
[graph_1_in_0_3 @ 000001cb5f1629c0] tb:1/48000 samplefmt:fltp samplerate:48000 chlayout:0x3
[format_out_0_1 @ 000001cb5f1638c0] Setting 'sample_fmts' to value 'fltp'
[format_out_0_1 @ 000001cb5f1638c0] Setting 'sample_rates' to value '48000'
[format_out_0_1 @ 000001cb5f1638c0] Setting 'channel_layouts' to value '0x4|0x3|0x103|0x7|0x603|0x33|0x107|0x607|0x37|0xc|0xb|0x10b|0xf|0x60b|0x3b|0x10f|0x60f|0x3f'
[AVFilterGraph @ 000001cb5ecd6cc0] query_formats: 4 queried, 9 merged, 0 already done, 0 delayed
Output #0, dvd, to 'C:\temp\donn.mpg':
  Metadata:
    encoder         : Lavf58.26.101
    Stream #0:0, 0, 1/90000: Video: mpeg2video (Main), yuv420p(bottom coded first (swapped)), 720x480 [SAR 8:9 DAR 4:3], q=2-31, 6000 kb/s, 29.97 fps, 90k tbn, 29.97 tbc
    Metadata:
      encoder         : Lavc58.47.103 mpeg2video
    Side data:
      cpb: bitrate max/min/avg: 9000000/0/6000000 buffer size: 1835008 vbv_delay: -1
    Stream #0:1, 0, 1/90000: Audio: ac3, 48000 Hz, stereo, fltp, 448 kb/s
    Metadata:
      encoder         : Lavc58.47.103 ac3
[dvd @ 000001cb5eceb680] First SCR: 0 First DTS: 45000
[out_0_0 @ 000001cb5f394a00] EOF on sink link out_0_0:default.
[out_0_1 @ 000001cb5f1628c0] EOF on sink link out_0_1:default.
No more output streams to write to, finishing.
video:44374kB audio:3552kB subtitle:0kB other streams:0kB global headers:0kB muxing overhead: 1.942774%
Input file #0 (concat:D:\VIDEO_TS\VTS_01_0.VOB|D:\VIDEO_TS\VTS_01_1.VOB):
  Input stream #0:0 (data): 0 packets read (0 bytes); 
  Input stream #0:1 (video): 1961 packets read (47588322 bytes); 1960 frames decoded; 
  Input stream #0:2 (subtitle): 0 packets read (0 bytes); 
  Input stream #0:3 (audio): 2030 packets read (1559040 bytes); 2030 frames decoded (3118080 samples); 
  Total: 3991 packets (49147362 bytes) demuxed
Output file #0 (C:\temp\donn.mpg):
  Output stream #0:0 (video): 1960 frames encoded; 1960 packets muxed (45439374 bytes); 
  Output stream #0:1 (audio): 2030 frames encoded (3118080 samples); 2030 packets muxed (3637760 bytes); 
  Total: 3990 packets (49077134 bytes) muxed
3990 frames successfully decoded, 0 decoding errors
[AVIOContext @ 000001cb5ec8f800] Statistics: 0 seeks, 24319 writeouts
[AVIOContext @ 000001cb5ec93cc0] Statistics: 53872784 bytes read, 2 seeks
